# xmcd
# 
# Track frame offsets:
#     150
#     16654
#     32224
#     44969
#     60533
#     80102
#     92619
#     109056
#     123106
#     137180
#     153782
#     163413
#     180127
#     198235
# 
# Disc length: 2853
# 
# Revision: 2
# Processed by: cddbd v1.5.2PL0 Copyright (c) Steve Scherf et al.
# Submitted via: fre:ac v1.0.31
# 
DISCID=b30b230e
DTITLE=DJ Edelweiß and die Tiroler Alpenhosen - Alpenhose - Die härtesten Hüttenhits [CD 3)
DYEAR=2000
DGENRE=Party and Stimmung
TTITLE0=Zehn nackte Friseusen
TTITLE1=Ein Bett im Kornfeld
TTITLE2=Guten Morgen liebe Sorgen
TTITLE3=Resi, i hol di mit mei'm Traktor ab
TTITLE4=An der Copacabana
TTITLE5=Heidi
TTITLE6=Wieder alles im Griff
TTITLE7=Ich will Spaß
TTITLE8=Keine Sterne in Athen
TTITLE9=Der Nippel
TTITLE10=Schöner fremder Mann
TTITLE11=Ö la Paloma
TTITLE12=Küß die Hand schöne Frau
TTITLE13=Der König von Deutschland
EXTD=YEAR: 2000
EXTT0=
EXTT1=
EXTT2=
EXTT3=
EXTT4=
EXTT5=
EXTT6=
EXTT7=
EXTT8=
EXTT9=
EXTT10=
EXTT11=
EXTT12=
EXTT13=
PLAYORDER=
